<svg xmlns="http://www.w3.org/2000/svg" width="60" height="60" fill="none"><path fill="#4d6bfe" d="M54.486 15.022c-.52-.254-.743.23-1.046.476-.104.079-.192.182-.28.277-.758.809-1.644 1.34-2.802 1.277-1.693-.096-3.139.436-4.416 1.728-.272-1.594-1.174-2.546-2.547-3.156-.719-.317-1.446-.635-1.949-1.324-.351-.492-.447-1.04-.623-1.578-.111-.325-.223-.659-.599-.714-.407-.064-.567.277-.726.563-.64 1.166-.887 2.45-.863 3.75.056 2.927 1.294 5.258 3.754 6.916.28.19.35.38.263.658-.168.572-.367 1.127-.543 1.698-.112.364-.28.444-.67.285-1.35-.563-2.516-1.396-3.546-2.403-1.75-1.689-3.33-3.553-5.303-5.012a23 23 0 0 0-1.405-.96c-2.012-1.95.264-3.552.79-3.742.551-.199.192-.88-1.589-.873s-3.41.603-5.486 1.396a6 6 0 0 1-.95.277 19.6 19.6 0 0 0-5.885-.206c-3.85.428-6.923 2.244-9.183 5.345-2.715 3.728-3.354 7.963-2.571 12.38.822 4.655 3.202 8.51 6.859 11.523 3.793 3.124 8.161 4.655 13.144 4.361 3.026-.174 6.396-.578 10.197-3.79.958.475 1.964.666 3.633.809 1.286.119 2.524-.064 3.482-.262 1.501-.317 1.398-1.705.854-1.959-4.4-2.045-3.433-1.213-4.312-1.887 2.236-2.64 5.606-5.385 6.924-14.275.103-.705.015-1.15 0-1.72-.008-.35.071-.484.47-.524 1.103-.127 2.173-.428 3.155-.968 2.85-1.554 4-4.107 4.272-7.169.04-.467-.008-.951-.503-1.197m-24.842 27.55c-4.264-3.347-6.332-4.45-7.187-4.402-.798.048-.655.96-.48 1.555.184.587.424.99.76 1.506.231.341.39.849-.232 1.23-1.373.848-3.761-.286-3.873-.341-2.779-1.634-5.103-3.791-6.74-6.741-1.58-2.84-2.5-5.884-2.65-9.136-.04-.785.191-1.063.973-1.205a9.6 9.6 0 0 1 3.123-.08c4.352.635 8.057 2.578 11.163 5.655 1.773 1.752 3.114 3.846 4.496 5.892 1.47 2.173 3.05 4.243 5.063 5.94.71.594 1.277 1.047 1.82 1.38-1.637.182-4.368.222-6.236-1.254m2.062-13.278a.626.626 0 0 1 .828-.434.62.62 0 0 1 .407.587.624.624 0 0 1-.63.626.616.616 0 0 1-.615-.522.7.7 0 0 1 .01-.257m6.124 3.486c-.338.13-.674.23-1 .244-.606.031-1.269-.215-1.628-.516-.56-.468-.958-.73-1.126-1.547-.072-.348-.032-.888.032-1.197.144-.666-.016-1.094-.487-1.483-.383-.317-.87-.404-1.406-.404-.2 0-.383-.087-.519-.159-.223-.11-.407-.388-.231-.73.056-.11.327-.38.391-.427.727-.413 1.565-.278 2.34.031.718.294 1.262.833 2.044 1.594.798.92.942 1.174 1.398 1.864.36.539.686 1.094.91 1.728.114.332.01.614-.304.813-.127.081-.273.136-.414.19"/></svg>