<svg xmlns="http://www.w3.org/2000/svg" width="320" height="320" viewBox="0 0 320 320">
  <rect width="320" height="320" fill="#ffffff" rx="20"/>
  <circle cx="160" cy="160" r="130" fill="none" stroke="#111111" stroke-width="1.8"/>
  <circle cx="127.50" cy="41.26" r="1.24" fill="#111111" opacity="0.259"/>
  <circle cx="140.50" cy="41.26" r="1.25" fill="#111111" opacity="0.282"/>
  <circle cx="153.50" cy="41.26" r="1.26" fill="#111111" opacity="0.294"/>
  <circle cx="166.50" cy="41.26" r="1.26" fill="#111111" opacity="0.294"/>
  <circle cx="179.50" cy="41.26" r="1.25" fill="#111111" opacity="0.282"/>
  <circle cx="192.50" cy="41.26" r="1.24" fill="#111111" opacity="0.259"/>
  <circle cx="108.00" cy="52.52" r="1.26" fill="#111111" opacity="0.29"/>
  <circle cx="121.00" cy="52.52" r="1.28" fill="#111111" opacity="0.331"/>
  <circle cx="134.00" cy="52.52" r="1.3" fill="#111111" opacity="0.362"/>
  <circle cx="147.00" cy="52.52" r="1.32" fill="#111111" opacity="0.38"/>
  <circle cx="160.00" cy="52.52" r="1.32" fill="#111111" opacity="0.386"/>
  <circle cx="173.00" cy="52.52" r="1.32" fill="#111111" opacity="0.38"/>
  <circle cx="186.00" cy="52.52" r="1.3" fill="#111111" opacity="0.362"/>
  <circle cx="199.00" cy="52.52" r="1.28" fill="#111111" opacity="0.331"/>
  <circle cx="212.00" cy="52.52" r="1.26" fill="#111111" opacity="0.29"/>
  <circle cx="88.50" cy="63.77" r="1.25" fill="#111111" opacity="0.286"/>
  <circle cx="101.50" cy="63.77" r="1.29" fill="#111111" opacity="0.345"/>
  <circle cx="114.50" cy="63.77" r="1.33" fill="#111111" opacity="0.394"/>
  <circle cx="127.50" cy="63.77" r="1.35" fill="#111111" opacity="0.432"/>
  <circle cx="140.50" cy="63.77" r="1.37" fill="#111111" opacity="0.458"/>
  <circle cx="153.50" cy="63.77" r="1.38" fill="#111111" opacity="0.471"/>
  <circle cx="166.50" cy="63.77" r="1.38" fill="#111111" opacity="0.471"/>
  <circle cx="179.50" cy="63.77" r="1.37" fill="#111111" opacity="0.458"/>
  <circle cx="192.50" cy="63.77" r="1.35" fill="#111111" opacity="0.432"/>
  <circle cx="205.50" cy="63.77" r="1.33" fill="#111111" opacity="0.394"/>
  <circle cx="218.50" cy="63.77" r="1.29" fill="#111111" opacity="0.345"/>
  <circle cx="231.50" cy="63.77" r="1.25" fill="#111111" opacity="0.286"/>
  <circle cx="69.00" cy="75.03" r="1.23" fill="#111111" opacity="0.247"/>
  <circle cx="82.00" cy="75.03" r="1.28" fill="#111111" opacity="0.323"/>
  <circle cx="95.00" cy="75.03" r="1.32" fill="#111111" opacity="0.39"/>
  <circle cx="108.00" cy="75.03" r="1.36" fill="#111111" opacity="0.447"/>
  <circle cx="121.00" cy="75.03" r="1.4" fill="#111111" opacity="0.493"/>
  <circle cx="134.00" cy="75.03" r="1.42" fill="#111111" opacity="0.526"/>
  <circle cx="147.00" cy="75.03" r="1.44" fill="#111111" opacity="0.547"/>
  <circle cx="160.00" cy="75.03" r="1.44" fill="#111111" opacity="0.554"/>
  <circle cx="173.00" cy="75.03" r="1.44" fill="#111111" opacity="0.547"/>
  <circle cx="186.00" cy="75.03" r="1.42" fill="#111111" opacity="0.526"/>
  <circle cx="199.00" cy="75.03" r="1.4" fill="#111111" opacity="0.493"/>
  <circle cx="212.00" cy="75.03" r="1.36" fill="#111111" opacity="0.447"/>
  <circle cx="225.00" cy="75.03" r="1.32" fill="#111111" opacity="0.39"/>
  <circle cx="238.00" cy="75.03" r="1.28" fill="#111111" opacity="0.323"/>
  <circle cx="251.00" cy="75.03" r="1.23" fill="#111111" opacity="0.247"/>
  <circle cx="62.50" cy="86.29" r="1.24" fill="#111111" opacity="0.266"/>
  <circle cx="75.50" cy="86.29" r="1.3" fill="#111111" opacity="0.349"/>
  <circle cx="88.50" cy="86.29" r="1.35" fill="#111111" opacity="0.423"/>
  <circle cx="101.50" cy="86.29" r="1.39" fill="#111111" opacity="0.488"/>
  <circle cx="114.50" cy="86.29" r="1.43" fill="#111111" opacity="0.542"/>
  <circle cx="127.50" cy="86.29" r="1.47" fill="#111111" opacity="0.584"/>
  <circle cx="140.50" cy="86.29" r="1.49" fill="#111111" opacity="0.613"/>
  <circle cx="153.50" cy="86.29" r="1.5" fill="#111111" opacity="0.628"/>
  <circle cx="166.50" cy="86.29" r="1.5" fill="#111111" opacity="0.628"/>
  <circle cx="179.50" cy="86.29" r="1.49" fill="#111111" opacity="0.613"/>
  <circle cx="192.50" cy="86.29" r="1.47" fill="#111111" opacity="0.584"/>
  <circle cx="205.50" cy="86.29" r="1.43" fill="#111111" opacity="0.542"/>
  <circle cx="218.50" cy="86.29" r="1.39" fill="#111111" opacity="0.488"/>
  <circle cx="231.50" cy="86.29" r="1.35" fill="#111111" opacity="0.423"/>
  <circle cx="244.50" cy="86.29" r="1.3" fill="#111111" opacity="0.349"/>
  <circle cx="257.50" cy="86.29" r="1.24" fill="#111111" opacity="0.266"/>
  <circle cx="56.00" cy="97.55" r="1.25" fill="#111111" opacity="0.274"/>
  <circle cx="69.00" cy="97.55" r="1.31" fill="#111111" opacity="0.363"/>
  <circle cx="82.00" cy="97.55" r="1.36" fill="#111111" opacity="0.445"/>
  <circle cx="95.00" cy="97.55" r="1.41" fill="#111111" opacity="0.517"/>
  <circle cx="108.00" cy="97.55" r="1.46" fill="#111111" opacity="0.579"/>
  <circle cx="121.00" cy="97.55" r="1.5" fill="#111111" opacity="0.63"/>
  <circle cx="134.00" cy="97.55" r="1.54" fill="#111111" opacity="0.668"/>
  <circle cx="147.00" cy="97.55" r="1.56" fill="#111111" opacity="0.692"/>
  <circle cx="160.00" cy="97.55" r="1.56" fill="#111111" opacity="0.7"/>
  <circle cx="173.00" cy="97.55" r="1.56" fill="#111111" opacity="0.692"/>
  <circle cx="186.00" cy="97.55" r="1.54" fill="#111111" opacity="0.668"/>
  <circle cx="199.00" cy="97.55" r="1.5" fill="#111111" opacity="0.63"/>
  <circle cx="212.00" cy="97.55" r="1.46" fill="#111111" opacity="0.579"/>
  <circle cx="225.00" cy="97.55" r="1.41" fill="#111111" opacity="0.517"/>
  <circle cx="238.00" cy="97.55" r="1.36" fill="#111111" opacity="0.445"/>
  <circle cx="251.00" cy="97.55" r="1.31" fill="#111111" opacity="0.363"/>
  <circle cx="264.00" cy="97.55" r="1.25" fill="#111111" opacity="0.274"/>
  <circle cx="49.50" cy="108.81" r="1.24" fill="#111111" opacity="0.27"/>
  <circle cx="62.50" cy="108.81" r="1.31" fill="#111111" opacity="0.365"/>
  <circle cx="75.50" cy="108.81" r="1.37" fill="#111111" opacity="0.453"/>
  <circle cx="88.50" cy="108.81" r="1.43" fill="#111111" opacity="0.533"/>
  <circle cx="101.50" cy="108.81" r="1.48" fill="#111111" opacity="0.603"/>
  <circle cx="114.50" cy="108.81" r="1.53" fill="#111111" opacity="0.663"/>
  <circle cx="127.50" cy="108.81" r="1.57" fill="#111111" opacity="0.711"/>
  <circle cx="140.50" cy="108.81" r="1.61" fill="#111111" opacity="0.745"/>
  <circle cx="153.50" cy="108.81" r="1.62" fill="#111111" opacity="0.762"/>
  <circle cx="166.50" cy="108.81" r="1.62" fill="#111111" opacity="0.762"/>
  <circle cx="179.50" cy="108.81" r="1.61" fill="#111111" opacity="0.745"/>
  <circle cx="192.50" cy="108.81" r="1.57" fill="#111111" opacity="0.711"/>
  <circle cx="205.50" cy="108.81" r="1.53" fill="#111111" opacity="0.663"/>
  <circle cx="218.50" cy="108.81" r="1.48" fill="#111111" opacity="0.603"/>
  <circle cx="231.50" cy="108.81" r="1.43" fill="#111111" opacity="0.533"/>
  <circle cx="244.50" cy="108.81" r="1.37" fill="#111111" opacity="0.453"/>
  <circle cx="257.50" cy="108.81" r="1.31" fill="#111111" opacity="0.365"/>
  <circle cx="270.50" cy="108.81" r="1.24" fill="#111111" opacity="0.27"/>
  <circle cx="43.00" cy="120.07" r="1.23" fill="#111111" opacity="0.254"/>
  <circle cx="56.00" cy="120.07" r="1.3" fill="#111111" opacity="0.355"/>
  <circle cx="69.00" cy="120.07" r="1.36" fill="#111111" opacity="0.449"/>
  <circle cx="82.00" cy="120.07" r="1.43" fill="#111111" opacity="0.535"/>
  <circle cx="95.00" cy="120.07" r="1.49" fill="#111111" opacity="0.613"/>
  <circle cx="108.00" cy="120.07" r="1.55" fill="#111111" opacity="0.681"/>
  <circle cx="121.00" cy="120.07" r="1.6" fill="#111111" opacity="0.739"/>
  <circle cx="134.00" cy="120.07" r="1.64" fill="#111111" opacity="0.784"/>
  <circle cx="147.00" cy="120.07" r="1.67" fill="#111111" opacity="0.812"/>
  <circle cx="160.00" cy="120.07" r="1.68" fill="#111111" opacity="0.822"/>
  <circle cx="173.00" cy="120.07" r="1.67" fill="#111111" opacity="0.812"/>
  <circle cx="186.00" cy="120.07" r="1.64" fill="#111111" opacity="0.784"/>
  <circle cx="199.00" cy="120.07" r="1.6" fill="#111111" opacity="0.739"/>
  <circle cx="212.00" cy="120.07" r="1.55" fill="#111111" opacity="0.681"/>
  <circle cx="225.00" cy="120.07" r="1.49" fill="#111111" opacity="0.613"/>
  <circle cx="238.00" cy="120.07" r="1.43" fill="#111111" opacity="0.535"/>
  <circle cx="251.00" cy="120.07" r="1.36" fill="#111111" opacity="0.449"/>
  <circle cx="264.00" cy="120.07" r="1.3" fill="#111111" opacity="0.355"/>
  <circle cx="277.00" cy="120.07" r="1.23" fill="#111111" opacity="0.254"/>
  <circle cx="49.50" cy="131.32" r="1.29" fill="#111111" opacity="0.333"/>
  <circle cx="62.50" cy="131.32" r="1.35" fill="#111111" opacity="0.432"/>
  <circle cx="75.50" cy="131.32" r="1.42" fill="#111111" opacity="0.523"/>
  <circle cx="88.50" cy="131.32" r="1.49" fill="#111111" opacity="0.608"/>
  <circle cx="101.50" cy="131.32" r="1.55" fill="#111111" opacity="0.684"/>
  <circle cx="114.50" cy="131.32" r="1.61" fill="#111111" opacity="0.75"/>
  <circle cx="127.50" cy="131.32" r="1.67" fill="#111111" opacity="0.806"/>
  <circle cx="140.50" cy="131.32" r="1.71" fill="#111111" opacity="0.847"/>
  <circle cx="153.50" cy="131.32" r="1.74" fill="#111111" opacity="0.869"/>
  <circle cx="166.50" cy="131.32" r="1.74" fill="#111111" opacity="0.869"/>
  <circle cx="179.50" cy="131.32" r="1.71" fill="#111111" opacity="0.847"/>
  <circle cx="192.50" cy="131.32" r="1.67" fill="#111111" opacity="0.806"/>
  <circle cx="205.50" cy="131.32" r="1.61" fill="#111111" opacity="0.75"/>
  <circle cx="218.50" cy="131.32" r="1.55" fill="#111111" opacity="0.684"/>
  <circle cx="231.50" cy="131.32" r="1.49" fill="#111111" opacity="0.608"/>
  <circle cx="244.50" cy="131.32" r="1.42" fill="#111111" opacity="0.523"/>
  <circle cx="257.50" cy="131.32" r="1.35" fill="#111111" opacity="0.432"/>
  <circle cx="270.50" cy="131.32" r="1.29" fill="#111111" opacity="0.333"/>
  <circle cx="43.00" cy="142.58" r="1.26" fill="#111111" opacity="0.299"/>
  <circle cx="56.00" cy="142.58" r="1.33" fill="#111111" opacity="0.402"/>
  <circle cx="69.00" cy="142.58" r="1.4" fill="#111111" opacity="0.499"/>
  <circle cx="82.00" cy="142.58" r="1.47" fill="#111111" opacity="0.588"/>
  <circle cx="95.00" cy="142.58" r="1.54" fill="#111111" opacity="0.671"/>
  <circle cx="108.00" cy="142.58" r="1.6" fill="#111111" opacity="0.745"/>
  <circle cx="121.00" cy="142.58" r="1.67" fill="#111111" opacity="0.809"/>
  <circle cx="134.00" cy="142.58" r="1.73" fill="#111111" opacity="0.861"/>
  <circle cx="147.00" cy="142.58" r="1.78" fill="#111111" opacity="0.899"/>
  <circle cx="160.00" cy="142.58" r="1.81" fill="#111111" opacity="0.913"/>
  <circle cx="173.00" cy="142.58" r="1.78" fill="#111111" opacity="0.899"/>
  <circle cx="186.00" cy="142.58" r="1.73" fill="#111111" opacity="0.861"/>
  <circle cx="199.00" cy="142.58" r="1.67" fill="#111111" opacity="0.809"/>
  <circle cx="212.00" cy="142.58" r="1.6" fill="#111111" opacity="0.745"/>
  <circle cx="225.00" cy="142.58" r="1.54" fill="#111111" opacity="0.671"/>
  <circle cx="238.00" cy="142.58" r="1.47" fill="#111111" opacity="0.588"/>
  <circle cx="251.00" cy="142.58" r="1.4" fill="#111111" opacity="0.499"/>
  <circle cx="264.00" cy="142.58" r="1.33" fill="#111111" opacity="0.402"/>
  <circle cx="277.00" cy="142.58" r="1.26" fill="#111111" opacity="0.299"/>
  <circle cx="36.50" cy="153.84" r="1.23" fill="#111111" opacity="0.254"/>
  <circle cx="49.50" cy="153.84" r="1.3" fill="#111111" opacity="0.361"/>
  <circle cx="62.50" cy="153.84" r="1.37" fill="#111111" opacity="0.461"/>
  <circle cx="75.50" cy="153.84" r="1.44" fill="#111111" opacity="0.555"/>
  <circle cx="88.50" cy="153.84" r="1.51" fill="#111111" opacity="0.642"/>
  <circle cx="101.50" cy="153.84" r="1.58" fill="#111111" opacity="0.722"/>
  <circle cx="114.50" cy="153.84" r="1.65" fill="#111111" opacity="0.793"/>
  <circle cx="127.50" cy="153.84" r="1.72" fill="#111111" opacity="0.854"/>
  <circle cx="140.50" cy="153.84" r="1.79" fill="#111111" opacity="0.903"/>
  <circle cx="153.50" cy="153.84" r="1.85" fill="#111111" opacity="0.936"/>
  <circle cx="166.50" cy="153.84" r="1.85" fill="#111111" opacity="0.936"/>
  <circle cx="179.50" cy="153.84" r="1.79" fill="#111111" opacity="0.903"/>
  <circle cx="192.50" cy="153.84" r="1.72" fill="#111111" opacity="0.854"/>
  <circle cx="205.50" cy="153.84" r="1.65" fill="#111111" opacity="0.793"/>
  <circle cx="218.50" cy="153.84" r="1.58" fill="#111111" opacity="0.722"/>
  <circle cx="231.50" cy="153.84" r="1.51" fill="#111111" opacity="0.642"/>
  <circle cx="244.50" cy="153.84" r="1.44" fill="#111111" opacity="0.555"/>
  <circle cx="257.50" cy="153.84" r="1.37" fill="#111111" opacity="0.461"/>
  <circle cx="270.50" cy="153.84" r="1.3" fill="#111111" opacity="0.361"/>
  <circle cx="283.50" cy="153.84" r="1.23" fill="#111111" opacity="0.254"/>
  <circle cx="43.00" cy="165.10" r="1.27" fill="#111111" opacity="0.309"/>
  <circle cx="56.00" cy="165.10" r="1.34" fill="#111111" opacity="0.412"/>
  <circle cx="69.00" cy="165.10" r="1.41" fill="#111111" opacity="0.51"/>
  <circle cx="82.00" cy="165.10" r="1.48" fill="#111111" opacity="0.6"/>
  <circle cx="95.00" cy="165.10" r="1.55" fill="#111111" opacity="0.684"/>
  <circle cx="108.00" cy="165.10" r="1.62" fill="#111111" opacity="0.759"/>
  <circle cx="121.00" cy="165.10" r="1.69" fill="#111111" opacity="0.825"/>
  <circle cx="134.00" cy="165.10" r="1.76" fill="#111111" opacity="0.881"/>
  <circle cx="147.00" cy="165.10" r="1.82" fill="#111111" opacity="0.924"/>
  <circle cx="160.00" cy="165.10" r="1.87" fill="#111111" opacity="0.944"/>
  <circle cx="173.00" cy="165.10" r="1.82" fill="#111111" opacity="0.924"/>
  <circle cx="186.00" cy="165.10" r="1.76" fill="#111111" opacity="0.881"/>
  <circle cx="199.00" cy="165.10" r="1.69" fill="#111111" opacity="0.825"/>
  <circle cx="212.00" cy="165.10" r="1.62" fill="#111111" opacity="0.759"/>
  <circle cx="225.00" cy="165.10" r="1.55" fill="#111111" opacity="0.684"/>
  <circle cx="238.00" cy="165.10" r="1.48" fill="#111111" opacity="0.6"/>
  <circle cx="251.00" cy="165.10" r="1.41" fill="#111111" opacity="0.51"/>
  <circle cx="264.00" cy="165.10" r="1.34" fill="#111111" opacity="0.412"/>
  <circle cx="277.00" cy="165.10" r="1.27" fill="#111111" opacity="0.309"/>
  <circle cx="36.50" cy="176.36" r="1.23" fill="#111111" opacity="0.246"/>
  <circle cx="49.50" cy="176.36" r="1.3" fill="#111111" opacity="0.353"/>
  <circle cx="62.50" cy="176.36" r="1.37" fill="#111111" opacity="0.453"/>
  <circle cx="75.50" cy="176.36" r="1.44" fill="#111111" opacity="0.546"/>
  <circle cx="88.50" cy="176.36" r="1.51" fill="#111111" opacity="0.632"/>
  <circle cx="101.50" cy="176.36" r="1.57" fill="#111111" opacity="0.71"/>
  <circle cx="114.50" cy="176.36" r="1.64" fill="#111111" opacity="0.78"/>
  <circle cx="127.50" cy="176.36" r="1.7" fill="#111111" opacity="0.839"/>
  <circle cx="140.50" cy="176.36" r="1.76" fill="#111111" opacity="0.885"/>
  <circle cx="153.50" cy="176.36" r="1.81" fill="#111111" opacity="0.913"/>
  <circle cx="166.50" cy="176.36" r="1.81" fill="#111111" opacity="0.913"/>
  <circle cx="179.50" cy="176.36" r="1.76" fill="#111111" opacity="0.885"/>
  <circle cx="192.50" cy="176.36" r="1.7" fill="#111111" opacity="0.839"/>
  <circle cx="205.50" cy="176.36" r="1.64" fill="#111111" opacity="0.78"/>
  <circle cx="218.50" cy="176.36" r="1.57" fill="#111111" opacity="0.71"/>
  <circle cx="231.50" cy="176.36" r="1.51" fill="#111111" opacity="0.632"/>
  <circle cx="244.50" cy="176.36" r="1.44" fill="#111111" opacity="0.546"/>
  <circle cx="257.50" cy="176.36" r="1.37" fill="#111111" opacity="0.453"/>
  <circle cx="270.50" cy="176.36" r="1.3" fill="#111111" opacity="0.353"/>
  <circle cx="283.50" cy="176.36" r="1.23" fill="#111111" opacity="0.246"/>
  <circle cx="43.00" cy="187.62" r="1.25" fill="#111111" opacity="0.283"/>
  <circle cx="56.00" cy="187.62" r="1.32" fill="#111111" opacity="0.385"/>
  <circle cx="69.00" cy="187.62" r="1.39" fill="#111111" opacity="0.481"/>
  <circle cx="82.00" cy="187.62" r="1.45" fill="#111111" opacity="0.569"/>
  <circle cx="95.00" cy="187.62" r="1.52" fill="#111111" opacity="0.65"/>
  <circle cx="108.00" cy="187.62" r="1.58" fill="#111111" opacity="0.721"/>
  <circle cx="121.00" cy="187.62" r="1.64" fill="#111111" opacity="0.783"/>
  <circle cx="134.00" cy="187.62" r="1.7" fill="#111111" opacity="0.832"/>
  <circle cx="147.00" cy="187.62" r="1.74" fill="#111111" opacity="0.865"/>
  <circle cx="160.00" cy="187.62" r="1.75" fill="#111111" opacity="0.877"/>
  <circle cx="173.00" cy="187.62" r="1.74" fill="#111111" opacity="0.865"/>
  <circle cx="186.00" cy="187.62" r="1.7" fill="#111111" opacity="0.832"/>
  <circle cx="199.00" cy="187.62" r="1.64" fill="#111111" opacity="0.783"/>
  <circle cx="212.00" cy="187.62" r="1.58" fill="#111111" opacity="0.721"/>
  <circle cx="225.00" cy="187.62" r="1.52" fill="#111111" opacity="0.65"/>
  <circle cx="238.00" cy="187.62" r="1.45" fill="#111111" opacity="0.569"/>
  <circle cx="251.00" cy="187.62" r="1.39" fill="#111111" opacity="0.481"/>
  <circle cx="264.00" cy="187.62" r="1.32" fill="#111111" opacity="0.385"/>
  <circle cx="277.00" cy="187.62" r="1.25" fill="#111111" opacity="0.283"/>
  <circle cx="49.50" cy="198.87" r="1.27" fill="#111111" opacity="0.308"/>
  <circle cx="62.50" cy="198.87" r="1.33" fill="#111111" opacity="0.406"/>
  <circle cx="75.50" cy="198.87" r="1.4" fill="#111111" opacity="0.496"/>
  <circle cx="88.50" cy="198.87" r="1.46" fill="#111111" opacity="0.578"/>
  <circle cx="101.50" cy="198.87" r="1.52" fill="#111111" opacity="0.652"/>
  <circle cx="114.50" cy="198.87" r="1.58" fill="#111111" opacity="0.716"/>
  <circle cx="127.50" cy="198.87" r="1.63" fill="#111111" opacity="0.767"/>
  <circle cx="140.50" cy="198.87" r="1.67" fill="#111111" opacity="0.805"/>
  <circle cx="153.50" cy="198.87" r="1.69" fill="#111111" opacity="0.825"/>
  <circle cx="166.50" cy="198.87" r="1.69" fill="#111111" opacity="0.825"/>
  <circle cx="179.50" cy="198.87" r="1.67" fill="#111111" opacity="0.805"/>
  <circle cx="192.50" cy="198.87" r="1.63" fill="#111111" opacity="0.767"/>
  <circle cx="205.50" cy="198.87" r="1.58" fill="#111111" opacity="0.716"/>
  <circle cx="218.50" cy="198.87" r="1.52" fill="#111111" opacity="0.652"/>
  <circle cx="231.50" cy="198.87" r="1.46" fill="#111111" opacity="0.578"/>
  <circle cx="244.50" cy="198.87" r="1.4" fill="#111111" opacity="0.496"/>
  <circle cx="257.50" cy="198.87" r="1.33" fill="#111111" opacity="0.406"/>
  <circle cx="270.50" cy="198.87" r="1.27" fill="#111111" opacity="0.308"/>
  <circle cx="56.00" cy="210.13" r="1.28" fill="#111111" opacity="0.322"/>
  <circle cx="69.00" cy="210.13" r="1.34" fill="#111111" opacity="0.414"/>
  <circle cx="82.00" cy="210.13" r="1.4" fill="#111111" opacity="0.498"/>
  <circle cx="95.00" cy="210.13" r="1.46" fill="#111111" opacity="0.574"/>
  <circle cx="108.00" cy="210.13" r="1.51" fill="#111111" opacity="0.639"/>
  <circle cx="121.00" cy="210.13" r="1.56" fill="#111111" opacity="0.694"/>
  <circle cx="134.00" cy="210.13" r="1.6" fill="#111111" opacity="0.735"/>
  <circle cx="147.00" cy="210.13" r="1.62" fill="#111111" opacity="0.761"/>
  <circle cx="160.00" cy="210.13" r="1.63" fill="#111111" opacity="0.77"/>
  <circle cx="173.00" cy="210.13" r="1.62" fill="#111111" opacity="0.761"/>
  <circle cx="186.00" cy="210.13" r="1.6" fill="#111111" opacity="0.735"/>
  <circle cx="199.00" cy="210.13" r="1.56" fill="#111111" opacity="0.694"/>
  <circle cx="212.00" cy="210.13" r="1.51" fill="#111111" opacity="0.639"/>
  <circle cx="225.00" cy="210.13" r="1.46" fill="#111111" opacity="0.574"/>
  <circle cx="238.00" cy="210.13" r="1.4" fill="#111111" opacity="0.498"/>
  <circle cx="251.00" cy="210.13" r="1.34" fill="#111111" opacity="0.414"/>
  <circle cx="264.00" cy="210.13" r="1.28" fill="#111111" opacity="0.322"/>
  <circle cx="62.50" cy="221.39" r="1.28" fill="#111111" opacity="0.324"/>
  <circle cx="75.50" cy="221.39" r="1.34" fill="#111111" opacity="0.41"/>
  <circle cx="88.50" cy="221.39" r="1.39" fill="#111111" opacity="0.487"/>
  <circle cx="101.50" cy="221.39" r="1.44" fill="#111111" opacity="0.555"/>
  <circle cx="114.50" cy="221.39" r="1.49" fill="#111111" opacity="0.612"/>
  <circle cx="127.50" cy="221.39" r="1.53" fill="#111111" opacity="0.657"/>
  <circle cx="140.50" cy="221.39" r="1.55" fill="#111111" opacity="0.688"/>
  <circle cx="153.50" cy="221.39" r="1.57" fill="#111111" opacity="0.705"/>
  <circle cx="166.50" cy="221.39" r="1.57" fill="#111111" opacity="0.705"/>
  <circle cx="179.50" cy="221.39" r="1.55" fill="#111111" opacity="0.688"/>
  <circle cx="192.50" cy="221.39" r="1.53" fill="#111111" opacity="0.657"/>
  <circle cx="205.50" cy="221.39" r="1.49" fill="#111111" opacity="0.612"/>
  <circle cx="218.50" cy="221.39" r="1.44" fill="#111111" opacity="0.555"/>
  <circle cx="231.50" cy="221.39" r="1.39" fill="#111111" opacity="0.487"/>
  <circle cx="244.50" cy="221.39" r="1.34" fill="#111111" opacity="0.41"/>
  <circle cx="257.50" cy="221.39" r="1.28" fill="#111111" opacity="0.324"/>
  <circle cx="69.00" cy="232.65" r="1.27" fill="#111111" opacity="0.314"/>
  <circle cx="82.00" cy="232.65" r="1.33" fill="#111111" opacity="0.393"/>
  <circle cx="95.00" cy="232.65" r="1.38" fill="#111111" opacity="0.463"/>
  <circle cx="108.00" cy="232.65" r="1.42" fill="#111111" opacity="0.523"/>
  <circle cx="121.00" cy="232.65" r="1.46" fill="#111111" opacity="0.571"/>
  <circle cx="134.00" cy="232.65" r="1.48" fill="#111111" opacity="0.607"/>
  <circle cx="147.00" cy="232.65" r="1.5" fill="#111111" opacity="0.629"/>
  <circle cx="160.00" cy="232.65" r="1.51" fill="#111111" opacity="0.637"/>
  <circle cx="173.00" cy="232.65" r="1.5" fill="#111111" opacity="0.629"/>
  <circle cx="186.00" cy="232.65" r="1.48" fill="#111111" opacity="0.607"/>
  <circle cx="199.00" cy="232.65" r="1.46" fill="#111111" opacity="0.571"/>
  <circle cx="212.00" cy="232.65" r="1.42" fill="#111111" opacity="0.523"/>
  <circle cx="225.00" cy="232.65" r="1.38" fill="#111111" opacity="0.463"/>
  <circle cx="238.00" cy="232.65" r="1.33" fill="#111111" opacity="0.393"/>
  <circle cx="251.00" cy="232.65" r="1.27" fill="#111111" opacity="0.314"/>
  <circle cx="75.50" cy="243.91" r="1.26" fill="#111111" opacity="0.292"/>
  <circle cx="88.50" cy="243.91" r="1.31" fill="#111111" opacity="0.364"/>
  <circle cx="101.50" cy="243.91" r="1.35" fill="#111111" opacity="0.427"/>
  <circle cx="114.50" cy="243.91" r="1.39" fill="#111111" opacity="0.478"/>
  <circle cx="127.50" cy="243.91" r="1.42" fill="#111111" opacity="0.518"/>
  <circle cx="140.50" cy="243.91" r="1.44" fill="#111111" opacity="0.545"/>
  <circle cx="153.50" cy="243.91" r="1.45" fill="#111111" opacity="0.559"/>
  <circle cx="166.50" cy="243.91" r="1.45" fill="#111111" opacity="0.559"/>
  <circle cx="179.50" cy="243.91" r="1.44" fill="#111111" opacity="0.545"/>
  <circle cx="192.50" cy="243.91" r="1.42" fill="#111111" opacity="0.518"/>
  <circle cx="205.50" cy="243.91" r="1.39" fill="#111111" opacity="0.478"/>
  <circle cx="218.50" cy="243.91" r="1.35" fill="#111111" opacity="0.427"/>
  <circle cx="231.50" cy="243.91" r="1.31" fill="#111111" opacity="0.364"/>
  <circle cx="244.50" cy="243.91" r="1.26" fill="#111111" opacity="0.292"/>
  <circle cx="82.00" cy="255.17" r="1.24" fill="#111111" opacity="0.259"/>
  <circle cx="95.00" cy="255.17" r="1.28" fill="#111111" opacity="0.324"/>
  <circle cx="108.00" cy="255.17" r="1.32" fill="#111111" opacity="0.379"/>
  <circle cx="121.00" cy="255.17" r="1.35" fill="#111111" opacity="0.422"/>
  <circle cx="134.00" cy="255.17" r="1.37" fill="#111111" opacity="0.454"/>
  <circle cx="147.00" cy="255.17" r="1.38" fill="#111111" opacity="0.474"/>
  <circle cx="160.00" cy="255.17" r="1.39" fill="#111111" opacity="0.48"/>
  <circle cx="173.00" cy="255.17" r="1.38" fill="#111111" opacity="0.474"/>
  <circle cx="186.00" cy="255.17" r="1.37" fill="#111111" opacity="0.454"/>
  <circle cx="199.00" cy="255.17" r="1.35" fill="#111111" opacity="0.422"/>
  <circle cx="212.00" cy="255.17" r="1.32" fill="#111111" opacity="0.379"/>
  <circle cx="225.00" cy="255.17" r="1.28" fill="#111111" opacity="0.324"/>
  <circle cx="238.00" cy="255.17" r="1.24" fill="#111111" opacity="0.259"/>
  <circle cx="101.50" cy="266.42" r="1.25" fill="#111111" opacity="0.273"/>
  <circle cx="114.50" cy="266.42" r="1.28" fill="#111111" opacity="0.32"/>
  <circle cx="127.50" cy="266.42" r="1.3" fill="#111111" opacity="0.356"/>
  <circle cx="140.50" cy="266.42" r="1.32" fill="#111111" opacity="0.381"/>
  <circle cx="153.50" cy="266.42" r="1.33" fill="#111111" opacity="0.393"/>
  <circle cx="166.50" cy="266.42" r="1.33" fill="#111111" opacity="0.393"/>
  <circle cx="179.50" cy="266.42" r="1.32" fill="#111111" opacity="0.381"/>
  <circle cx="192.50" cy="266.42" r="1.3" fill="#111111" opacity="0.356"/>
  <circle cx="205.50" cy="266.42" r="1.28" fill="#111111" opacity="0.32"/>
  <circle cx="218.50" cy="266.42" r="1.25" fill="#111111" opacity="0.273"/>
  <circle cx="121.00" cy="277.68" r="1.23" fill="#111111" opacity="0.252"/>
  <circle cx="134.00" cy="277.68" r="1.25" fill="#111111" opacity="0.281"/>
  <circle cx="147.00" cy="277.68" r="1.26" fill="#111111" opacity="0.298"/>
  <circle cx="160.00" cy="277.68" r="1.27" fill="#111111" opacity="0.304"/>
  <circle cx="173.00" cy="277.68" r="1.26" fill="#111111" opacity="0.298"/>
  <circle cx="186.00" cy="277.68" r="1.25" fill="#111111" opacity="0.281"/>
  <circle cx="199.00" cy="277.68" r="1.23" fill="#111111" opacity="0.252"/>
</svg>