<svg viewBox="0 0 1280 720" xmlns="http://www.w3.org/2000/svg" font-family="Inter, system-ui, sans-serif">

  <!-- Sidebar bg -->
  <rect x="0" y="0" width="216" height="720" fill="#f5f5f5" />
  <line x1="216" y1="0" x2="216" y2="720" stroke="#e3e3e3" stroke-width="1" />

  <!-- Header: "Cantor" + collapse icon -->
  <rect x="0" y="0" width="216" height="52" fill="#f5f5f5" />

  <!-- Cantor wordmark -->
  <text x="32" y="34" font-size="17" font-weight="600" fill="rgba(23,23,23,0.88)">Cantor</text>

  <!-- Collapse sidebar icon (sidebar-left lucide approximation) -->
  <!-- Using two vertical bars + right-pointing line -->
  <g transform="translate(184, 16)" opacity="0.45">
    <rect x="0" y="0" width="20" height="20" rx="4" fill="transparent"/>
    <!-- sidebar icon: outer rect -->
    <rect x="2" y="3" width="16" height="14" rx="2" fill="none" stroke="rgba(23,23,23,0.7)" stroke-width="1.5" stroke-linecap="round" stroke-linejoin="round"/>
    <!-- sidebar icon: inner vertical divider -->
    <line x1="8" y1="3" x2="8" y2="17" stroke="rgba(23,23,23,0.7)" stroke-width="1.5" stroke-linecap="round"/>
  </g>

  <!-- Divider -->
  <line x1="0" y1="52" x2="216" y2="52" stroke="#e3e3e3" stroke-width="1" />

  <!-- New chat row -->
  <g transform="translate(0, 52)">
    <!-- hover bg (simulating non-active state) -->
    <rect x="8" y="6" width="200" height="32" rx="6" fill="transparent"/>
    <!-- MessageSquarePlus icon at 16px, centered at y=22 -->
    <g transform="translate(24, 14) scale(0.667)" fill="none" stroke="rgba(23,23,23,0.55)" stroke-width="2" stroke-linecap="round" stroke-linejoin="round">
      <path d="M22 17a2 2 0 0 1-2 2H6.828a2 2 0 0 0-1.414.586l-2.202 2.202A.71.71 0 0 1 2 21.286V5a2 2 0 0 1 2-2h16a2 2 0 0 1 2 2z"/>
      <path d="M12 8v6"/>
      <path d="M9 11h6"/>
    </g>
    <text x="46" y="27" font-size="13.75" fill="rgba(23,23,23,0.6)">New chat</text>
  </g>

  <!-- New folder row -->
  <g transform="translate(0, 88)">
    <rect x="8" y="6" width="200" height="32" rx="6" fill="transparent"/>
    <!-- FolderPlus icon -->
    <g transform="translate(24, 14) scale(0.667)" fill="none" stroke="rgba(23,23,23,0.55)" stroke-width="2" stroke-linecap="round" stroke-linejoin="round">
      <path d="M12 10v6"/>
      <path d="M9 13h6"/>
      <path d="M20 20a2 2 0 0 0 2-2V8a2 2 0 0 0-2-2h-7.9a2 2 0 0 1-1.69-.9L9.6 3.9A2 2 0 0 0 7.93 3H4a2 2 0 0 0-2 2v13a2 2 0 0 0 2 2Z"/>
    </g>
    <text x="46" y="27" font-size="13.75" fill="rgba(23,23,23,0.6)">New folder</text>
  </g>

  <!-- Separator -->
  <line x1="8" y1="132" x2="208" y2="132" stroke="#e3e3e3" stroke-width="1" />

  <!-- Chats section label + upload icon -->
  <text x="24" y="152" font-size="12" font-weight="500" fill="rgba(23,23,23,0.5)">Chats</text>
  <!-- Upload icon -->
  <g transform="translate(197, 140) scale(0.583)" fill="none" stroke="rgba(23,23,23,0.4)" stroke-width="2" stroke-linecap="round" stroke-linejoin="round">
    <path d="M12 3v12"/>
    <path d="m17 8-5-5-5 5"/>
    <path d="M21 15v4a2 2 0 0 1-2 2H5a2 2 0 0 1-2-2v-4"/>
  </g>

  <!-- Chat items -->
  <!-- Active chat -->
  <rect x="8" y="158" width="200" height="32" rx="6" fill="rgba(23,23,23,0.07)" />
  <g transform="translate(24, 166) scale(0.667)" fill="none" stroke="rgba(23,23,23,0.75)" stroke-width="2" stroke-linecap="round" stroke-linejoin="round">
    <path d="M22 17a2 2 0 0 1-2 2H6.828a2 2 0 0 0-1.414.586l-2.202 2.202A.71.71 0 0 1 2 21.286V5a2 2 0 0 1 2-2h16a2 2 0 0 1 2 2z"/>
  </g>
  <text x="46" y="179" font-size="13.75" font-weight="500" fill="rgba(23,23,23,0.88)">Test</text>

  <!-- Chat 1 -->
  <g transform="translate(24, 202) scale(0.667)" fill="none" stroke="rgba(23,23,23,0.45)" stroke-width="2" stroke-linecap="round" stroke-linejoin="round">
    <path d="M22 17a2 2 0 0 1-2 2H6.828a2 2 0 0 0-1.414.586l-2.202 2.202A.71.71 0 0 1 2 21.286V5a2 2 0 0 1 2-2h16a2 2 0 0 1 2 2z"/>
  </g>
  <text x="46" y="213" font-size="13.75" fill="rgba(23,23,23,0.55)">Chat (1)</text>

  <!-- Chat 2 -->
  <g transform="translate(24, 228) scale(0.667)" fill="none" stroke="rgba(23,23,23,0.45)" stroke-width="2" stroke-linecap="round" stroke-linejoin="round">
    <path d="M22 17a2 2 0 0 1-2 2H6.828a2 2 0 0 0-1.414.586l-2.202 2.202A.71.71 0 0 1 2 21.286V5a2 2 0 0 1 2-2h16a2 2 0 0 1 2 2z"/>
  </g>
  <text x="46" y="239" font-size="13.75" fill="rgba(23,23,23,0.55)">Chat (2)</text>

  <!-- Chat 3 -->
  <g transform="translate(24, 254) scale(0.667)" fill="none" stroke="rgba(23,23,23,0.45)" stroke-width="2" stroke-linecap="round" stroke-linejoin="round">
    <path d="M22 17a2 2 0 0 1-2 2H6.828a2 2 0 0 0-1.414.586l-2.202 2.202A.71.71 0 0 1 2 21.286V5a2 2 0 0 1 2-2h16a2 2 0 0 1 2 2z"/>
  </g>
  <text x="46" y="265" font-size="13.75" fill="rgba(23,23,23,0.55)">Chat (3)</text>

  <!-- Chat 4 -->
  <g transform="translate(24, 280) scale(0.667)" fill="none" stroke="rgba(23,23,23,0.45)" stroke-width="2" stroke-linecap="round" stroke-linejoin="round">
    <path d="M22 17a2 2 0 0 1-2 2H6.828a2 2 0 0 0-1.414.586l-2.202 2.202A.71.71 0 0 1 2 21.286V5a2 2 0 0 1 2-2h16a2 2 0 0 1 2 2z"/>
  </g>
  <text x="46" y="291" font-size="13.75" fill="rgba(23,23,23,0.55)">Chat (4)</text>

  <!-- Separator -->
  <line x1="8" y1="308" x2="208" y2="308" stroke="#e3e3e3" stroke-width="1" />

  <!-- Folders section label + upload icon -->
  <text x="24" y="328" font-size="12" font-weight="500" fill="rgba(23,23,23,0.5)">Folders</text>
  <g transform="translate(197, 316) scale(0.583)" fill="none" stroke="rgba(23,23,23,0.4)" stroke-width="2" stroke-linecap="round" stroke-linejoin="round">
    <path d="M12 3v12"/>
    <path d="m17 8-5-5-5 5"/>
    <path d="M21 15v4a2 2 0 0 1-2 2H5a2 2 0 0 1-2-2v-4"/>
  </g>

  <!-- Folder items -->
  <!-- Transformers -->
  <g transform="translate(24, 336) scale(0.583)" fill="none" stroke="rgba(23,23,23,0.45)" stroke-width="2" stroke-linecap="round" stroke-linejoin="round">
    <path d="m9 18 6-6-6-6"/>
  </g>
  <g transform="translate(36, 334) scale(0.583)" fill="none" stroke="rgba(23,23,23,0.45)" stroke-width="2" stroke-linecap="round" stroke-linejoin="round">
    <path d="M20 20a2 2 0 0 0 2-2V8a2 2 0 0 0-2-2h-7.9a2 2 0 0 1-1.69-.9L9.6 3.9A2 2 0 0 0 7.93 3H4a2 2 0 0 0-2 2v13a2 2 0 0 0 2 2Z"/>
  </g>
  <text x="56" y="347" font-size="13.75" fill="rgba(23,23,23,0.55)">Transformers</text>

  <!-- Probability -->
  <g transform="translate(24, 362) scale(0.583)" fill="none" stroke="rgba(23,23,23,0.45)" stroke-width="2" stroke-linecap="round" stroke-linejoin="round">
    <path d="m9 18 6-6-6-6"/>
  </g>
  <g transform="translate(36, 360) scale(0.583)" fill="none" stroke="rgba(23,23,23,0.45)" stroke-width="2" stroke-linecap="round" stroke-linejoin="round">
    <path d="M20 20a2 2 0 0 0 2-2V8a2 2 0 0 0-2-2h-7.9a2 2 0 0 1-1.69-.9L9.6 3.9A2 2 0 0 0 7.93 3H4a2 2 0 0 0-2 2v13a2 2 0 0 0 2 2Z"/>
  </g>
  <text x="56" y="373" font-size="13.75" fill="rgba(23,23,23,0.55)">Probability</text>

  <!-- New Folder -->
  <g transform="translate(24, 388) scale(0.583)" fill="none" stroke="rgba(23,23,23,0.45)" stroke-width="2" stroke-linecap="round" stroke-linejoin="round">
    <path d="m9 18 6-6-6-6"/>
  </g>
  <g transform="translate(36, 386) scale(0.583)" fill="none" stroke="rgba(23,23,23,0.45)" stroke-width="2" stroke-linecap="round" stroke-linejoin="round">
    <path d="M20 20a2 2 0 0 0 2-2V8a2 2 0 0 0-2-2h-7.9a2 2 0 0 1-1.69-.9L9.6 3.9A2 2 0 0 0 7.93 3H4a2 2 0 0 0-2 2v13a2 2 0 0 0 2 2Z"/>
  </g>
  <text x="56" y="399" font-size="13.75" fill="rgba(23,23,23,0.55)">New Folder</text>

  <!-- Yesting -->
  <g transform="translate(24, 414) scale(0.583)" fill="none" stroke="rgba(23,23,23,0.45)" stroke-width="2" stroke-linecap="round" stroke-linejoin="round">
    <path d="m9 18 6-6-6-6"/>
  </g>
  <g transform="translate(36, 412) scale(0.583)" fill="none" stroke="rgba(23,23,23,0.45)" stroke-width="2" stroke-linecap="round" stroke-linejoin="round">
    <path d="M20 20a2 2 0 0 0 2-2V8a2 2 0 0 0-2-2h-7.9a2 2 0 0 1-1.69-.9L9.6 3.9A2 2 0 0 0 7.93 3H4a2 2 0 0 0-2 2v13a2 2 0 0 0 2 2Z"/>
  </g>
  <text x="56" y="425" font-size="13.75" fill="rgba(23,23,23,0.55)">Yesting</text>

</svg>
