<svg xmlns="http://www.w3.org/2000/svg" width="60" height="60" fill="none"><g clip-path="url(#clip0_480_19453)"><path fill="#0081fb" d="M11.685 35.103c0 1.84.402 3.252.928 4.107.69 1.119 1.717 1.593 2.766 1.593 1.352 0 2.589-.337 4.972-3.646 1.91-2.652 4.16-6.375 5.674-8.708l2.564-3.954c1.78-2.746 3.842-5.799 6.206-7.868C36.725 14.938 38.806 14 40.9 14c3.517 0 6.867 2.046 9.431 5.882 2.806 4.202 4.168 9.495 4.168 14.957 0 3.246-.638 5.632-1.723 7.517C51.73 44.179 49.686 46 46.25 46v-5.197c2.943 0 3.677-2.714 3.677-5.82 0-4.427-1.028-9.339-3.293-12.849-1.608-2.49-3.69-4.01-5.983-4.01-2.478 0-4.473 1.876-6.715 5.221-1.192 1.778-2.415 3.944-3.789 6.389l-1.512 2.689c-3.038 5.406-3.808 6.637-5.327 8.67C20.645 44.65 18.372 46 15.38 46c-3.55 0-5.796-1.543-7.186-3.868C7.058 40.237 6.5 37.75 6.5 34.917z"/><path fill="url(#paint0_linear_480_19453)" d="M10.588 20.25c2.377-3.678 5.807-6.25 9.741-6.25 2.279 0 4.544.677 6.91 2.615 2.587 2.12 5.344 5.61 8.784 11.361l1.234 2.064c2.978 4.98 4.672 7.541 5.664 8.75 1.275 1.55 2.168 2.013 3.328 2.013 2.943 0 3.677-2.714 3.677-5.82l4.574-.144c0 3.246-.638 5.632-1.723 7.517C51.73 44.179 49.686 46 46.25 46c-2.137 0-4.03-.466-6.123-2.448-1.609-1.521-3.49-4.223-4.937-6.653l-4.305-7.217c-2.16-3.622-4.141-6.323-5.288-7.546-1.234-1.315-2.82-2.904-5.35-2.904-2.048 0-3.787 1.443-5.243 3.65z"/><path fill="url(#paint1_linear_480_19453)" d="M20.246 19.232c-2.048 0-3.787 1.443-5.243 3.65-2.058 3.117-3.318 7.761-3.318 12.221 0 1.84.402 3.252.928 4.107l-4.42 2.922C7.058 40.237 6.5 37.75 6.5 34.917c0-5.152 1.409-10.521 4.088-14.668C12.965 16.572 16.395 14 20.33 14z"/></g><defs><linearGradient id="paint0_linear_480_19453" x1="16.682" x2="49.733" y1="33.602" y2="35.265" gradientUnits="userSpaceOnUse"><stop stop-color="#0064e1"/><stop offset=".4" stop-color="#0064e1"/><stop offset=".83" stop-color="#0073ee"/><stop offset="1" stop-color="#0082fb"/></linearGradient><linearGradient id="paint1_linear_480_19453" x1="14.011" x2="14.011" y1="37.288" y2="25.058" gradientUnits="userSpaceOnUse"><stop stop-color="#0082fb"/><stop offset="1" stop-color="#0064e0"/></linearGradient><clipPath id="clip0_480_19453"><path fill="#fff" d="M6.5 14h48v32h-48z"/></clipPath></defs></svg>